<?xml version="1.0" standalone="no"?>
<!DOCTYPE svg PUBLIC "-//W3C//DTD SVG 20010904//EN"
 "http://www.w3.org/TR/2001/REC-SVG-20010904/DTD/svg10.dtd">
<svg version="1.0" xmlns="http://www.w3.org/2000/svg"
 width="512.000000pt" height="512.000000pt" viewBox="0 0 512.000000 512.000000"
 preserveAspectRatio="xMidYMid meet">

<g transform="translate(0.000000,512.000000) scale(0.100000,-0.100000)"
fill="#000000" stroke="none">
<path d="M2374 5109 c-66 -15 -145 -69 -181 -122 -44 -66 -56 -116 -51 -214
l4 -83 -25 0 c-14 0 -100 -5 -191 -10 -462 -28 -644 -115 -644 -305 0 -146
116 -243 408 -339 15 -5 -4 -21 -91 -72 -373 -222 -662 -541 -873 -967 -43
-87 -80 -155 -83 -150 -2 4 -7 24 -11 44 -10 56 -49 89 -103 89 -42 0 -50 -5
-115 -67 -72 -69 -98 -107 -98 -141 0 -10 23 -65 50 -122 28 -56 45 -100 38
-97 -281 114 -326 124 -367 86 -35 -32 -41 -61 -41 -185 0 -194 20 -214 211
-214 l112 0 -94 -71 c-102 -76 -118 -96 -119 -148 0 -30 11 -45 83 -118 78
-78 86 -83 126 -83 36 0 49 6 78 35 19 19 36 35 36 35 1 0 3 -87 3 -193 1
-155 5 -212 23 -294 160 -764 873 -1264 1963 -1377 322 -34 674 -30 948 10
876 128 1471 614 1669 1365 80 302 100 633 56 909 -117 726 -679 1423 -1412
1750 l-107 48 -31 73 c-164 390 -635 831 -982 920 -82 20 -124 22 -189 8z
m1358 -2969 c18 0 158 42 311 92 310 104 283 103 312 10 19 -60 18 -201 -3
-238 -10 -20 -14 -20 -84 -8 -40 7 -130 16 -200 20 -127 7 -128 7 -128 31 0
14 -13 38 -29 54 -55 54 -150 30 -169 -44 -6 -21 -16 -33 -34 -38 -15 -4 -69
-30 -121 -58 -88 -47 -99 -51 -163 -51 -38 0 -76 5 -84 10 -13 8 -13 10 2 10
9 0 28 14 42 31 81 96 -47 224 -143 143 -55 -46 -47 -138 15 -166 23 -11 24
-13 7 -19 -10 -4 -45 -8 -78 -8 -33 -1 -105 -8 -159 -16 -55 -8 -105 -15 -112
-15 -19 0 -37 95 -32 174 8 113 39 179 123 263 l72 72 311 -124 c175 -70 326
-125 344 -125z m97 -389 c191 -115 355 -253 454 -383 60 -78 129 -189 123
-195 -2 -3 -35 5 -72 17 -217 67 -556 102 -981 103 l-311 0 30 38 c54 67 196
184 348 286 92 62 301 183 316 183 6 0 48 -22 93 -49z m-741 -112 c-35 -29
-84 -70 -109 -93 -25 -23 -3 1 50 52 52 50 101 92 109 92 7 0 -15 -23 -50 -51z
m822 -583 c203 -25 196 -18 93 -108 -104 -90 -200 -165 -304 -237 l-76 -53
-91 57 c-180 110 -472 332 -472 358 0 16 693 2 850 -17z"/>
</g>
</svg>
